<?xml version="1.0" encoding="UTF-8"?><svg id="Camada_1" xmlns="http://www.w3.org/2000/svg" xmlns:xlink="http://www.w3.org/1999/xlink" viewBox="0 0 38 38"><defs><style>.cls-1{fill:url(#Gradiente_sem_nome_23);}.cls-1,.cls-2,.cls-3{stroke-width:0px;}.cls-2{fill:url(#Gradiente_sem_nome_11);}.cls-3{fill:#3662e3;}</style><linearGradient id="Gradiente_sem_nome_11" x1="17.27" y1="36.13" x2="17.27" y2="49.01" gradientTransform="translate(0 50.11) scale(1 -1)" gradientUnits="userSpaceOnUse"><stop offset="0" stop-color="#3662e3"/><stop offset="1" stop-color="#8ca5e8"/></linearGradient><linearGradient id="Gradiente_sem_nome_23" x1="18.23" y1="12.49" x2="18.23" y2="40.51" gradientTransform="translate(0 50.11) scale(1 -1)" gradientUnits="userSpaceOnUse"><stop offset=".47" stop-color="#3662e3"/><stop offset=".62" stop-color="#3864e3"/><stop offset=".72" stop-color="#426be3"/><stop offset=".82" stop-color="#5278e4"/><stop offset=".9" stop-color="#6889e5"/><stop offset=".98" stop-color="#85a0e7"/><stop offset="1" stop-color="#8ca5e8"/></linearGradient></defs><path class="cls-2" d="M26.19,14.39c0-2.74,1.94-5.02,4.52-5.55C28.56,3.86,23.61.38,17.85.38,10.11.38,3.84,6.65,3.84,14.39c0,1.62.27,3.17.78,4.62,0,0,3.48-1.08,6.13,1.82,2.3,2.52,3.42,7.57,7.1,7.57,5.77,0,10.72-3.48,12.87-8.46-2.58-.53-4.52-2.81-4.52-5.55Z"/><path class="cls-1" d="M17.85,9.6c-6.15,0-11.36,3.96-13.25,9.46,2.77.37,4.91,2.74,4.91,5.61,0,2.57-1.72,4.74-4.07,5.43,2.34,4.47,7.02,7.52,12.42,7.52,7.74,0,14.01-6.27,14.01-14.01s-6.27-14.01-14.01-14.01Z"/><circle class="cls-3" cx="3.23" cy="24.63" r="2.84"/><circle class="cls-3" cx="33" cy="16.01" r="4.62"/></svg>