<?xml version="1.0" encoding="UTF-8"?><svg id="Camada_1" xmlns="http://www.w3.org/2000/svg" xmlns:xlink="http://www.w3.org/1999/xlink" viewBox="0 0 160 38"><defs><style>.cls-1{fill:url(#Gradiente_sem_nome);}.cls-1,.cls-2,.cls-3,.cls-4{stroke-width:0px;}.cls-2{fill:url(#Gradiente_sem_nome_2);}.cls-3{fill:#555;}.cls-4{fill:#3662e3;}</style><linearGradient id="Gradiente_sem_nome" x1="17.47" y1="13.87" x2="17.47" y2=".99" gradientTransform="translate(0 .11)" gradientUnits="userSpaceOnUse"><stop offset="0" stop-color="#3662e3"/><stop offset="1" stop-color="#8ca5e8"/></linearGradient><linearGradient id="Gradiente_sem_nome_2" x1="18.43" y1="37.51" x2="18.43" y2="9.49" gradientTransform="translate(0 .11)" gradientUnits="userSpaceOnUse"><stop offset=".47" stop-color="#3662e3"/><stop offset=".62" stop-color="#3864e3"/><stop offset=".72" stop-color="#426be3"/><stop offset=".82" stop-color="#5278e4"/><stop offset=".9" stop-color="#6889e5"/><stop offset=".98" stop-color="#85a0e7"/><stop offset="1" stop-color="#8ca5e8"/></linearGradient></defs><path class="cls-1" d="M26.39,14.39c0-2.74,1.94-5.02,4.52-5.55C28.76,3.86,23.81.38,18.04.38,10.3.38,4.03,6.65,4.03,14.39c0,1.62.27,3.17.78,4.62,0,0,3.48-1.08,6.13,1.82,2.3,2.52,3.42,7.57,7.1,7.57,5.77,0,10.72-3.48,12.87-8.46-2.58-.53-4.52-2.81-4.52-5.55Z"/><path class="cls-2" d="M18.04,9.6c-6.15,0-11.36,3.96-13.25,9.46,2.77.37,4.91,2.74,4.91,5.61,0,2.57-1.72,4.74-4.07,5.43,2.34,4.47,7.02,7.52,12.42,7.52,7.74,0,14.01-6.27,14.01-14.01s-6.27-14.01-14.01-14.01h-.01Z"/><circle class="cls-4" cx="3.42" cy="24.63" r="2.84"/><circle class="cls-4" cx="33.2" cy="16.01" r="4.62"/><polygon class="cls-4" points="44.2 24.93 53.49 24.93 53.49 22.11 47.71 22.11 47.71 19.89 53.04 19.89 53.04 17.06 47.71 17.06 47.71 14.84 53.52 14.84 53.52 12.01 44.2 12.01 44.2 24.93"/><path class="cls-4" d="M66.8,18.74c.41-.64.62-1.42.62-2.34s-.2-1.7-.6-2.36c-.4-.66-.96-1.16-1.68-1.51s-1.56-.52-2.52-.52h-5.58v12.92h3.51v-4.27h1.21l2.27,4.27h3.81l-2.63-4.82c.67-.32,1.2-.77,1.58-1.37ZM60.54,14.81h1.24c.41,0,.76.06,1.06.17s.52.28.68.52c.16.23.24.54.24.91s-.08.66-.24.89c-.16.23-.38.39-.68.5s-.64.15-1.06.15h-1.24v-3.13Z"/><path class="cls-4" d="M80.45,14.17c-.4-.69-.96-1.22-1.68-1.6-.72-.38-1.56-.57-2.52-.57h-5.58v12.92h3.51v-3.84h1.94c.98,0,1.85-.18,2.58-.55s1.31-.89,1.72-1.56.62-1.48.62-2.4-.2-1.72-.6-2.4ZM77.15,17.53c-.16.27-.38.48-.68.62-.29.15-.64.22-1.06.22h-1.24v-3.56h1.24c.41,0,.76.07,1.06.21.29.14.52.34.68.61s.24.58.24.95-.08.68-.24.95Z"/><polygon class="cls-3" points="86.41 12.01 84.85 12.01 84.85 24.93 92.42 24.93 92.42 23.54 86.41 23.54 86.41 12.01"/><rect class="cls-3" x="94.84" y="12.01" width="1.56" height="12.92"/><polygon class="cls-3" points="105.95 22.74 105.8 22.74 101.41 12.01 99.54 12.01 99.54 24.93 101 24.93 101 15.11 101.13 15.11 105.17 24.93 106.58 24.93 110.62 15.11 110.75 15.11 110.75 24.93 112.21 24.93 112.21 12.01 110.34 12.01 105.95 22.74"/><path class="cls-3" d="M122.19,12.56c-.65-.36-1.48-.55-2.49-.55h-4.37v12.92h1.56v-4.72h2.83c1.01,0,1.83-.18,2.47-.55s1.12-.86,1.43-1.49c.31-.62.46-1.31.46-2.08s-.16-1.45-.47-2.07c-.31-.62-.79-1.11-1.44-1.47ZM122.27,17.49c-.19.41-.5.74-.92.98-.42.24-.98.36-1.67.36h-2.78v-5.43h2.75c.7,0,1.27.12,1.69.35.42.23.73.55.92.96.19.41.29.87.29,1.39s-.1.98-.29,1.39Z"/><polygon class="cls-3" points="128.19 19.15 134.02 19.15 134.02 17.77 128.19 17.77 128.19 13.4 134.42 13.4 134.42 12.01 126.62 12.01 126.62 24.93 134.52 24.93 134.52 23.54 128.19 23.54 128.19 19.15"/><polygon class="cls-3" points="145.65 13.15 145.65 12.01 136.74 12.01 136.74 13.4 143.79 13.4 136.82 23.8 136.82 24.93 145.73 24.93 145.73 23.54 138.69 23.54 145.65 13.15"/><path class="cls-3" d="M156.71,24.93h1.64l-4.75-12.92h-1.62l-4.75,12.92h1.64l1.3-3.66h5.23l1.3,3.66ZM150.68,19.89l2.07-5.83h.1l2.07,5.83h-4.24Z"/></svg>