<?xml version="1.0" encoding="UTF-8"?><svg id="Camada_1" xmlns="http://www.w3.org/2000/svg" xmlns:xlink="http://www.w3.org/1999/xlink" viewBox="0 0 190 38"><defs><style>.cls-1{fill:url(#Gradiente_sem_nome_23);}.cls-1,.cls-2,.cls-3,.cls-4{stroke-width:0px;}.cls-2{fill:url(#Gradiente_sem_nome_11);}.cls-3{fill:#3662e3;}.cls-4{fill:#333;}</style><linearGradient id="Gradiente_sem_nome_11" x1="17.47" y1="36.13" x2="17.47" y2="49.01" gradientTransform="translate(0 50.11) scale(1 -1)" gradientUnits="userSpaceOnUse"><stop offset="0" stop-color="#3662e3"/><stop offset="1" stop-color="#8ca5e8"/></linearGradient><linearGradient id="Gradiente_sem_nome_23" x1="18.42" y1="12.49" x2="18.42" y2="40.51" gradientTransform="translate(0 50.11) scale(1 -1)" gradientUnits="userSpaceOnUse"><stop offset=".47" stop-color="#3662e3"/><stop offset=".62" stop-color="#3864e3"/><stop offset=".72" stop-color="#426be3"/><stop offset=".82" stop-color="#5278e4"/><stop offset=".9" stop-color="#6889e5"/><stop offset=".98" stop-color="#85a0e7"/><stop offset="1" stop-color="#8ca5e8"/></linearGradient></defs><path class="cls-2" d="M26.39,14.39c0-2.74,1.94-5.02,4.52-5.55C28.76,3.86,23.81.38,18.04.38,10.3.38,4.03,6.65,4.03,14.39c0,1.62.27,3.17.78,4.62,0,0,3.48-1.08,6.13,1.82,2.3,2.52,3.42,7.57,7.1,7.57,5.77,0,10.72-3.48,12.87-8.46-2.58-.53-4.52-2.81-4.52-5.55Z"/><path class="cls-1" d="M18.04,9.6c-6.15,0-11.36,3.96-13.25,9.46,2.77.37,4.91,2.74,4.91,5.61,0,2.57-1.72,4.74-4.07,5.43,2.34,4.47,7.02,7.52,12.42,7.52,7.74,0,14.01-6.27,14.01-14.01s-6.27-14.01-14.01-14.01Z"/><circle class="cls-3" cx="3.42" cy="24.63" r="2.84"/><circle class="cls-3" cx="33.2" cy="16.01" r="4.62"/><path class="cls-3" d="M47.61,16.79c-1.92,0-3.43-.54-4.51-1.63-1.08-1.08-1.63-2.58-1.63-4.49s.57-3.48,1.72-4.62c1.15-1.13,2.68-1.7,4.6-1.7,1.25,0,2.32.26,3.23.79.9.53,1.56,1.25,1.98,2.17l-2.43,1.37c-.57-1.13-1.51-1.7-2.8-1.7-.96,0-1.72.33-2.28.98-.57.65-.85,1.53-.85,2.63s.26,2,.77,2.63c.51.63,1.25.94,2.22.94.87,0,1.55-.23,2.06-.68.51-.46.78-.95.8-1.48h-2.53v-2.34h5.61v1.48c0,1.58-.55,2.92-1.64,4.01-1.09,1.09-2.53,1.64-4.33,1.64Z"/><path class="cls-3" d="M63.66,7.17h-5.29v2.07h4.72v2.6h-4.72v2.17h5.14v2.6h-8.29V5.77c0-.35.12-.63.35-.86.23-.22.53-.34.89-.34h7.22v2.6Z"/><path class="cls-3" d="M71.72,16.61l-2.34-4.18h-.89v4.18h-3.02V5.77c0-.35.12-.63.35-.86.23-.22.52-.34.87-.34h3.89c1.34,0,2.38.36,3.12,1.07.74.71,1.11,1.67,1.11,2.86,0,1.84-.8,3.04-2.39,3.59l2.73,4.52h-3.42ZM68.48,7.11v2.87h1.77c.94,0,1.42-.49,1.42-1.47,0-.42-.12-.75-.35-1.01-.23-.26-.58-.39-1.05-.39h-1.79Z"/><path class="cls-3" d="M85.08,7.17h-5.29v2.07h4.72v2.6h-4.72v2.17h5.14v2.6h-8.29V5.77c0-.35.12-.63.35-.86.23-.22.53-.34.89-.34h7.22v2.6Z"/><path class="cls-3" d="M94.63,4.57h2.87v11.24c0,.28-.15.51-.44.67-.29.17-.66.25-1.11.25-.52,0-.9-.06-1.15-.19s-.49-.34-.7-.64l-4.3-6.14v6.83h-2.9V5.72c0-.8.54-1.2,1.62-1.2.57,0,.99.08,1.24.25.25.17.56.52.94,1.05l3.94,5.55v-6.79Z"/><path class="cls-3" d="M105.06,16.79c-1.74,0-3.16-.55-4.24-1.64-1.08-1.1-1.63-2.59-1.63-4.48s.58-3.44,1.73-4.59c1.15-1.15,2.6-1.73,4.36-1.73,1.09,0,2.06.23,2.9.7s1.51,1.11,1.99,1.93l-2.24,1.52c-.6-.98-1.43-1.47-2.5-1.47-.94,0-1.69.32-2.24.95-.55.63-.83,1.5-.83,2.6s.27,1.93.8,2.55c.53.62,1.24.93,2.13.93,1.11,0,2.11-.51,3-1.52l1.92,1.84c-1.37,1.61-3.09,2.41-5.16,2.41Z"/><path class="cls-3" d="M111.74,16.61V4.57h3.15v12.04h-3.15Z"/><path class="cls-3" d="M124.58,16.61l-.73-2.26h-3.98l-.72,2.26h-3.19l4.05-11.18c.22-.63.84-.94,1.85-.94s1.64.31,1.87.94l4.03,11.18h-3.19ZM120.71,11.75h2.31l-1.15-3.61-1.16,3.61Z"/><path class="cls-3" d="M140.36,4.52c.47,0,.86.09,1.17.28.31.19.46.46.46.83v10.98h-3.05v-6.42l-2.09,4.08h-2.87l-2.09-4.08v6.42h-3.05V5.65c0-.37.15-.65.46-.84.31-.19.7-.29,1.17-.29.57,0,.98.09,1.22.26.24.17.51.54.8,1.1l2.92,5.65,2.92-5.65c.29-.56.56-.93.8-1.1.24-.17.65-.26,1.22-.26Z"/><path class="cls-3" d="M152.7,7.17h-5.29v2.07h4.72v2.6h-4.72v2.17h5.14v2.6h-8.29V5.77c0-.35.12-.63.35-.86.23-.22.52-.34.88-.34h7.22v2.6Z"/><path class="cls-3" d="M162.25,4.57h2.87v11.24c0,.28-.15.51-.44.67-.29.17-.66.25-1.11.25-.52,0-.9-.06-1.15-.19-.25-.12-.49-.34-.7-.64l-4.3-6.14v6.83h-2.9V5.72c0-.8.54-1.2,1.62-1.2.57,0,.99.08,1.24.25s.56.52.94,1.05l3.95,5.55v-6.79Z"/><path class="cls-3" d="M176.07,4.57v2.55h-3.22v9.49h-3.15V7.11h-3.25v-2.55h9.63Z"/><path class="cls-3" d="M182.56,16.79c-1.84,0-3.33-.56-4.45-1.68-1.12-1.12-1.69-2.6-1.69-4.44s.57-3.43,1.69-4.59c1.13-1.16,2.63-1.74,4.49-1.74s3.36.57,4.48,1.72,1.69,2.66,1.69,4.55-.57,3.36-1.7,4.48c-1.14,1.12-2.64,1.69-4.52,1.69ZM182.61,14.09c.97,0,1.71-.3,2.23-.9.52-.6.78-1.47.78-2.6s-.26-2.02-.78-2.63c-.52-.61-1.26-.91-2.23-.91s-1.73.3-2.24.91-.78,1.48-.78,2.63.26,2,.78,2.6c.52.6,1.26.9,2.24.9Z"/><path class="cls-4" d="M49.83,22.76h-5.88v3.84h5.33v1.33h-5.33v4.2h5.73v1.33h-7.2v-11.33c0-.24.08-.41.23-.53s.33-.18.53-.18h6.59v1.33Z"/><path class="cls-4" d="M63.35,21.34c.25,0,.45.06.6.18.15.12.23.27.23.46v11.48h-1.47v-9.47l-3.84,7.3h-1.26l-3.89-7.3v9.47h-1.43v-11.48c0-.19.08-.35.24-.46.16-.12.37-.18.62-.18.21,0,.39.04.52.11s.23.15.29.24c.06.08.14.22.24.41l4.05,7.64,4.06-7.64c.11-.2.19-.34.24-.42.05-.08.14-.15.28-.23s.31-.11.52-.11Z"/><path class="cls-4" d="M71.28,21.43c1.26,0,2.23.36,2.91,1.07.68.71,1.02,1.62,1.02,2.71,0,1.21-.35,2.15-1.05,2.82-.7.66-1.7.99-3.02.99h-2.36v4.45h-1.47v-11.35c0-.19.07-.35.2-.49.14-.13.3-.2.49-.2h3.27ZM71.18,27.68c1.66,0,2.5-.84,2.5-2.51,0-.76-.22-1.36-.65-1.78-.43-.42-1.06-.63-1.88-.63h-2.36v4.92h2.39Z"/><path class="cls-4" d="M82.98,33.46l-3-4.96h-1.67v4.96h-1.47v-11.35c0-.19.07-.35.2-.49.14-.13.3-.2.49-.2h3.29c1.24,0,2.18.33,2.84.99.66.66.99,1.52.99,2.59,0,.93-.26,1.69-.78,2.28-.52.59-1.26.97-2.22,1.14l3.24,5.04h-1.9ZM78.31,22.76v4.47h2.14c.87,0,1.53-.2,1.98-.59.46-.39.68-.96.68-1.69,0-.69-.23-1.22-.67-1.61-.45-.39-1.09-.58-1.92-.58h-2.21Z"/><path class="cls-4" d="M94.53,22.76h-5.88v3.84h5.33v1.33h-5.33v4.2h5.73v1.33h-7.2v-11.33c0-.24.08-.41.23-.53s.33-.18.53-.18h6.59v1.33Z"/><path class="cls-4" d="M100.02,33.65c-.84,0-1.63-.17-2.35-.51s-1.29-.8-1.69-1.4l.96-.93c.84,1.01,1.89,1.52,3.14,1.52.79,0,1.44-.2,1.95-.6.51-.4.77-.91.77-1.54,0-.15-.01-.28-.03-.41-.02-.13-.07-.25-.15-.37s-.15-.22-.2-.29c-.05-.08-.16-.16-.31-.25-.15-.09-.27-.16-.34-.21-.07-.05-.22-.12-.44-.21-.22-.09-.37-.15-.45-.18-.08-.03-.25-.09-.52-.19-.27-.09-.45-.16-.54-.19-.52-.18-.94-.35-1.26-.51s-.67-.37-1.04-.63c-.37-.26-.64-.58-.81-.95s-.26-.8-.26-1.3c0-1.04.38-1.85,1.13-2.43.75-.57,1.7-.86,2.85-.86,1.26,0,2.39.38,3.4,1.13l-.76,1.08c-.88-.63-1.78-.94-2.7-.94-.71,0-1.3.17-1.78.51-.48.34-.72.82-.72,1.43,0,.3.06.57.18.8.12.23.32.43.6.61.28.17.53.31.75.4.22.09.55.21.99.37.12.04.22.08.29.1,1.12.4,1.89.75,2.31,1.03.87.58,1.3,1.39,1.3,2.41,0,1.08-.41,1.94-1.24,2.57-.83.63-1.83.95-3.01.95Z"/><path class="cls-4" d="M114.35,33.46l-1.4-3.93h-4.92l-1.4,3.93h-1.63l4.13-11.09c.14-.36.31-.61.51-.76s.49-.22.85-.22.66.08.86.23c.2.15.37.41.51.77l4.13,11.08h-1.64ZM108.5,28.22h3.98l-1.99-5.55-1.99,5.55Z"/><path class="cls-4" d="M121.68,33.46c-.19,0-.35-.07-.49-.2s-.2-.3-.2-.49v-11.35h1.47v10.71h5.88v1.33h-6.66Z"/><path class="cls-4" d="M130.28,33.46v-12.04h1.47v12.04h-1.47Z"/><path class="cls-4" d="M145.96,21.34c.25,0,.45.06.6.18.15.12.23.27.23.46v11.48h-1.47v-9.47l-3.84,7.3h-1.26l-3.89-7.3v9.47h-1.43v-11.48c0-.19.08-.35.25-.46s.37-.18.62-.18c.21,0,.39.04.52.11s.23.15.29.24c.06.08.14.22.25.41l4.05,7.64,4.06-7.64c.11-.2.19-.34.25-.42.05-.08.14-.15.28-.23s.31-.11.52-.11Z"/><path class="cls-4" d="M153.88,21.43c1.26,0,2.23.36,2.91,1.07.68.71,1.02,1.62,1.02,2.71,0,1.21-.35,2.15-1.05,2.82-.7.66-1.7.99-3.02.99h-2.36v4.45h-1.47v-11.35c0-.19.07-.35.2-.49s.3-.2.49-.2h3.27ZM153.78,27.68c1.66,0,2.5-.84,2.5-2.51,0-.76-.22-1.36-.65-1.78-.43-.42-1.06-.63-1.88-.63h-2.36v4.92h2.39Z"/><path class="cls-4" d="M167.3,22.76h-5.88v3.84h5.33v1.33h-5.33v4.2h5.73v1.33h-7.2v-11.33c0-.24.08-.41.23-.53.15-.12.33-.18.53-.18h6.59v1.33Z"/><path class="cls-4" d="M169.19,33.46c-.25,0-.42-.16-.52-.48-.1-.32-.07-.61.08-.87l6.61-9.32h-6.19v-1.37h7.23c.29,0,.5.17.62.5.12.33.1.65-.08.95l-6.58,9.22h6.79v1.37h-7.97Z"/><path class="cls-4" d="M187.79,33.46l-1.4-3.93h-4.92l-1.4,3.93h-1.63l4.13-11.09c.14-.36.31-.61.51-.76s.49-.22.85-.22.66.08.86.23c.2.15.37.41.51.77l4.13,11.08h-1.64ZM181.94,28.22h3.98l-1.99-5.55-1.99,5.55Z"/></svg>